<svg width="96" height="97" viewBox="0 0 96 97" xmlns="http://www.w3.org/2000/svg" xmlns:xlink="http://www.w3.org/1999/xlink">
    <defs>
        <path id="on0wzkhc2a" d="M0 0h96v96H0z"/>
        <path id="5uz9wrqg0c" d="M0 0h96v96H0z"/>
    </defs>
    <g fill="none" fill-rule="evenodd">
        <path d="M82 84.208c-3.316 0-6-2.684-6-6v-48c0-3.309-2.691-6-6-6H26c-3.309 0-6 2.691-6 6v48c0 3.316-2.684 6-6 6s-6-2.684-6-6v-48c0-9.926 8.074-18 18-18h44c9.926 0 18 8.074 18 18v48c0 3.316-2.684 6-6 6z" fill="#2e76ff" fill-rule="nonzero"/>
        <path d="M48 71.903a34.22 34.22 0 0 1-16.977-4.488 5.998 5.998 0 0 1 5.954-10.414c6.8 3.883 15.246 3.883 22.046 0a5.998 5.998 0 0 1 5.954 10.414A34.22 34.22 0 0 1 48 71.903z" fill="#2e76ff" fill-rule="nonzero"/>
        <g transform="translate(0 .208)">
            <mask id="31i56lwdrb" fill="#fff">
                <use xlink:href="#on0wzkhc2a"/>
            </mask>
            <g mask="url(#31i56lwdrb)" fill="#ffffff" fill-rule="nonzero" opacity=".1">
                <path d="M36 20h-8v41.598L36 60z"/>
            </g>
        </g>
        <g transform="translate(0 .208)">
            <mask id="nsltubs0bd" fill="#fff">
                <use xlink:href="#5uz9wrqg0c"/>
            </mask>
            <g mask="url(#nsltubs0bd)" fill="#ffffff" fill-rule="nonzero" opacity=".1">
                <path d="M60 20h8v42.254L60 60z"/>
            </g>
        </g>
    </g>
</svg>
